<svg xmlns="http://www.w3.org/2000/svg" xmlns:xlink="http://www.w3.org/1999/xlink"
  style="margin: auto; background: rgb(122, 206, 255); display: block; z-index: 1; position: relative; shape-rendering: auto;"
  width="1280" height="1247" preserveAspectRatio="xMidYMid" viewBox="0 0 1280 1247">
  <g transform="translate(640,623.5) scale(1,1) translate(-640,-623.5)">
    <g transform="translate(-100 769.7286882865263) rotate(0)">
      <animateTransform attributeName="transform" type="translate" keyTimes="0;1"
        values="-100 769.7286882865263;1280 769.7286882865263" dur="66.66666666666667s"
        repeatCount="indefinite" begin="-49.19675974614519s"></animateTransform>
      <path
        d="M84.717,33.597c0.791-2.503,1.186-5.138,1.186-7.773C85.903,11.594,74.308,0,60.079,0 c-9.881,0-18.445,5.534-22.793,13.702c-1.581-0.527-3.426-0.791-5.138-0.791c-9.486,0-17.128,7.642-17.128,17.128 c0,1.186,0.132,2.372,0.395,3.426C6.719,34.783,0,42.424,0,51.515C0,61.66,8.169,69.829,18.314,69.829h63.373 C91.831,69.829,100,61.66,100,51.515C99.868,42.556,93.281,35.046,84.717,33.597z"
        fill="#bddeff" transform="scale(0.55)"></path>
    </g>
    <g transform="translate(-100 175.07816538373257) rotate(0)">
      <animateTransform attributeName="transform" type="translate" keyTimes="0;1"
        values="-100 175.07816538373257;1280 175.07816538373257" dur="66.66666666666667s"
        repeatCount="indefinite" begin="-0.8673709162038209s"></animateTransform>
      <path
        d="M84.717,33.597c0.791-2.503,1.186-5.138,1.186-7.773C85.903,11.594,74.308,0,60.079,0 c-9.881,0-18.445,5.534-22.793,13.702c-1.581-0.527-3.426-0.791-5.138-0.791c-9.486,0-17.128,7.642-17.128,17.128 c0,1.186,0.132,2.372,0.395,3.426C6.719,34.783,0,42.424,0,51.515C0,61.66,8.169,69.829,18.314,69.829h63.373 C91.831,69.829,100,61.66,100,51.515C99.868,42.556,93.281,35.046,84.717,33.597z"
        fill="#bddeff" transform="scale(0.55)"></path>
    </g>
    <g transform="translate(-100 1227.687180321199) rotate(0)">
      <animateTransform attributeName="transform" type="translate" keyTimes="0;1"
        values="-100 1227.687180321199;1280 1227.687180321199" dur="66.66666666666667s"
        repeatCount="indefinite" begin="-34.33207692741601s"></animateTransform>
      <path
        d="M84.717,33.597c0.791-2.503,1.186-5.138,1.186-7.773C85.903,11.594,74.308,0,60.079,0 c-9.881,0-18.445,5.534-22.793,13.702c-1.581-0.527-3.426-0.791-5.138-0.791c-9.486,0-17.128,7.642-17.128,17.128 c0,1.186,0.132,2.372,0.395,3.426C6.719,34.783,0,42.424,0,51.515C0,61.66,8.169,69.829,18.314,69.829h63.373 C91.831,69.829,100,61.66,100,51.515C99.868,42.556,93.281,35.046,84.717,33.597z"
        fill="#bddeff" transform="scale(0.55)"></path>
    </g>
    <g transform="translate(-100 709.7629319478219) rotate(0)">
      <animateTransform attributeName="transform" type="translate" keyTimes="0;1"
        values="-100 709.7629319478219;1280 709.7629319478219" dur="66.66666666666667s"
        repeatCount="indefinite" begin="-34.43143214039813s"></animateTransform>
      <path
        d="M84.717,33.597c0.791-2.503,1.186-5.138,1.186-7.773C85.903,11.594,74.308,0,60.079,0 c-9.881,0-18.445,5.534-22.793,13.702c-1.581-0.527-3.426-0.791-5.138-0.791c-9.486,0-17.128,7.642-17.128,17.128 c0,1.186,0.132,2.372,0.395,3.426C6.719,34.783,0,42.424,0,51.515C0,61.66,8.169,69.829,18.314,69.829h63.373 C91.831,69.829,100,61.66,100,51.515C99.868,42.556,93.281,35.046,84.717,33.597z"
        fill="#bddeff" transform="scale(0.55)"></path>
    </g>
    <g transform="translate(-100 597.7114095564405) rotate(0)">
      <animateTransform attributeName="transform" type="translate" keyTimes="0;1"
        values="-100 597.7114095564405;1280 597.7114095564405" dur="66.66666666666667s"
        repeatCount="indefinite" begin="-44.46207495581883s"></animateTransform>
      <path
        d="M84.717,33.597c0.791-2.503,1.186-5.138,1.186-7.773C85.903,11.594,74.308,0,60.079,0 c-9.881,0-18.445,5.534-22.793,13.702c-1.581-0.527-3.426-0.791-5.138-0.791c-9.486,0-17.128,7.642-17.128,17.128 c0,1.186,0.132,2.372,0.395,3.426C6.719,34.783,0,42.424,0,51.515C0,61.66,8.169,69.829,18.314,69.829h63.373 C91.831,69.829,100,61.66,100,51.515C99.868,42.556,93.281,35.046,84.717,33.597z"
        fill="#bddeff" transform="scale(0.55)"></path>
    </g>
    <g transform="translate(-100 997.4705585114964) rotate(0)">
      <animateTransform attributeName="transform" type="translate" keyTimes="0;1"
        values="-100 997.4705585114964;1280 997.4705585114964" dur="66.66666666666667s"
        repeatCount="indefinite" begin="-45.65619691462188s"></animateTransform>
      <path
        d="M84.717,33.597c0.791-2.503,1.186-5.138,1.186-7.773C85.903,11.594,74.308,0,60.079,0 c-9.881,0-18.445,5.534-22.793,13.702c-1.581-0.527-3.426-0.791-5.138-0.791c-9.486,0-17.128,7.642-17.128,17.128 c0,1.186,0.132,2.372,0.395,3.426C6.719,34.783,0,42.424,0,51.515C0,61.66,8.169,69.829,18.314,69.829h63.373 C91.831,69.829,100,61.66,100,51.515C99.868,42.556,93.281,35.046,84.717,33.597z"
        fill="#bddeff" transform="scale(0.55)"></path>
    </g>
    <g transform="translate(-100 856.7016685431794) rotate(0)">
      <animateTransform attributeName="transform" type="translate" keyTimes="0;1"
        values="-100 856.7016685431794;1280 856.7016685431794" dur="66.66666666666667s"
        repeatCount="indefinite" begin="-5.22477036269747s"></animateTransform>
      <path
        d="M84.717,33.597c0.791-2.503,1.186-5.138,1.186-7.773C85.903,11.594,74.308,0,60.079,0 c-9.881,0-18.445,5.534-22.793,13.702c-1.581-0.527-3.426-0.791-5.138-0.791c-9.486,0-17.128,7.642-17.128,17.128 c0,1.186,0.132,2.372,0.395,3.426C6.719,34.783,0,42.424,0,51.515C0,61.66,8.169,69.829,18.314,69.829h63.373 C91.831,69.829,100,61.66,100,51.515C99.868,42.556,93.281,35.046,84.717,33.597z"
        fill="#bddeff" transform="scale(0.55)"></path>
    </g>
    <g transform="translate(-100 1152.634923164308) rotate(0)">
      <animateTransform attributeName="transform" type="translate" keyTimes="0;1"
        values="-100 1152.634923164308;1280 1152.634923164308" dur="66.66666666666667s"
        repeatCount="indefinite" begin="-48.77036837886122s"></animateTransform>
      <path
        d="M84.717,33.597c0.791-2.503,1.186-5.138,1.186-7.773C85.903,11.594,74.308,0,60.079,0 c-9.881,0-18.445,5.534-22.793,13.702c-1.581-0.527-3.426-0.791-5.138-0.791c-9.486,0-17.128,7.642-17.128,17.128 c0,1.186,0.132,2.372,0.395,3.426C6.719,34.783,0,42.424,0,51.515C0,61.66,8.169,69.829,18.314,69.829h63.373 C91.831,69.829,100,61.66,100,51.515C99.868,42.556,93.281,35.046,84.717,33.597z"
        fill="#bddeff" transform="scale(0.55)"></path>
    </g>
    <g transform="translate(-100 1158.8027902272745) rotate(0)">
      <animateTransform attributeName="transform" type="translate" keyTimes="0;1"
        values="-100 1158.8027902272745;1280 1158.8027902272745" dur="66.66666666666667s"
        repeatCount="indefinite" begin="-60.5525022311496s"></animateTransform>
      <path
        d="M84.717,33.597c0.791-2.503,1.186-5.138,1.186-7.773C85.903,11.594,74.308,0,60.079,0 c-9.881,0-18.445,5.534-22.793,13.702c-1.581-0.527-3.426-0.791-5.138-0.791c-9.486,0-17.128,7.642-17.128,17.128 c0,1.186,0.132,2.372,0.395,3.426C6.719,34.783,0,42.424,0,51.515C0,61.66,8.169,69.829,18.314,69.829h63.373 C91.831,69.829,100,61.66,100,51.515C99.868,42.556,93.281,35.046,84.717,33.597z"
        fill="#bddeff" transform="scale(0.55)"></path>
    </g>
    <g transform="translate(-100 1147.3560746977284) rotate(0)">
      <animateTransform attributeName="transform" type="translate" keyTimes="0;1"
        values="-100 1147.3560746977284;1280 1147.3560746977284" dur="66.66666666666667s"
        repeatCount="indefinite" begin="-24.5510226737923s"></animateTransform>
      <path
        d="M84.717,33.597c0.791-2.503,1.186-5.138,1.186-7.773C85.903,11.594,74.308,0,60.079,0 c-9.881,0-18.445,5.534-22.793,13.702c-1.581-0.527-3.426-0.791-5.138-0.791c-9.486,0-17.128,7.642-17.128,17.128 c0,1.186,0.132,2.372,0.395,3.426C6.719,34.783,0,42.424,0,51.515C0,61.66,8.169,69.829,18.314,69.829h63.373 C91.831,69.829,100,61.66,100,51.515C99.868,42.556,93.281,35.046,84.717,33.597z"
        fill="#bddeff" transform="scale(0.55)"></path>
    </g>
    <g transform="translate(-100 563.6456737205879) rotate(0)">
      <animateTransform attributeName="transform" type="translate" keyTimes="0;1"
        values="-100 563.6456737205879;1280 563.6456737205879" dur="66.66666666666667s"
        repeatCount="indefinite" begin="-52.194600204691504s"></animateTransform>
      <path
        d="M84.717,33.597c0.791-2.503,1.186-5.138,1.186-7.773C85.903,11.594,74.308,0,60.079,0 c-9.881,0-18.445,5.534-22.793,13.702c-1.581-0.527-3.426-0.791-5.138-0.791c-9.486,0-17.128,7.642-17.128,17.128 c0,1.186,0.132,2.372,0.395,3.426C6.719,34.783,0,42.424,0,51.515C0,61.66,8.169,69.829,18.314,69.829h63.373 C91.831,69.829,100,61.66,100,51.515C99.868,42.556,93.281,35.046,84.717,33.597z"
        fill="#bddeff" transform="scale(0.55)"></path>
    </g>
    <g transform="translate(-100 200.761639111317) rotate(0)">
      <animateTransform attributeName="transform" type="translate" keyTimes="0;1"
        values="-100 200.761639111317;1280 200.761639111317" dur="33.333333333333336s"
        repeatCount="indefinite" begin="-26.103654702913577s"></animateTransform>
      <path
        d="M84.717,33.597c0.791-2.503,1.186-5.138,1.186-7.773C85.903,11.594,74.308,0,60.079,0 c-9.881,0-18.445,5.534-22.793,13.702c-1.581-0.527-3.426-0.791-5.138-0.791c-9.486,0-17.128,7.642-17.128,17.128 c0,1.186,0.132,2.372,0.395,3.426C6.719,34.783,0,42.424,0,51.515C0,61.66,8.169,69.829,18.314,69.829h63.373 C91.831,69.829,100,61.66,100,51.515C99.868,42.556,93.281,35.046,84.717,33.597z"
        fill="#ffffff" transform="scale(0.7)"></path>
    </g>
    <g transform="translate(-100 190.7560340983316) rotate(0)">
      <animateTransform attributeName="transform" type="translate" keyTimes="0;1"
        values="-100 190.7560340983316;1280 190.7560340983316" dur="33.333333333333336s"
        repeatCount="indefinite" begin="-22.363030243559894s"></animateTransform>
      <path
        d="M84.717,33.597c0.791-2.503,1.186-5.138,1.186-7.773C85.903,11.594,74.308,0,60.079,0 c-9.881,0-18.445,5.534-22.793,13.702c-1.581-0.527-3.426-0.791-5.138-0.791c-9.486,0-17.128,7.642-17.128,17.128 c0,1.186,0.132,2.372,0.395,3.426C6.719,34.783,0,42.424,0,51.515C0,61.66,8.169,69.829,18.314,69.829h63.373 C91.831,69.829,100,61.66,100,51.515C99.868,42.556,93.281,35.046,84.717,33.597z"
        fill="#ffffff" transform="scale(0.7)"></path>
    </g>
    <g transform="translate(-100 187.2455662872882) rotate(0)">
      <animateTransform attributeName="transform" type="translate" keyTimes="0;1"
        values="-100 187.2455662872882;1280 187.2455662872882" dur="33.333333333333336s"
        repeatCount="indefinite" begin="-65.15704451588213s"></animateTransform>
      <path
        d="M84.717,33.597c0.791-2.503,1.186-5.138,1.186-7.773C85.903,11.594,74.308,0,60.079,0 c-9.881,0-18.445,5.534-22.793,13.702c-1.581-0.527-3.426-0.791-5.138-0.791c-9.486,0-17.128,7.642-17.128,17.128 c0,1.186,0.132,2.372,0.395,3.426C6.719,34.783,0,42.424,0,51.515C0,61.66,8.169,69.829,18.314,69.829h63.373 C91.831,69.829,100,61.66,100,51.515C99.868,42.556,93.281,35.046,84.717,33.597z"
        fill="#ffffff" transform="scale(0.7)"></path>
    </g>
    <g transform="translate(-100 1010.4778413289297) rotate(0)">
      <animateTransform attributeName="transform" type="translate" keyTimes="0;1"
        values="-100 1010.4778413289297;1280 1010.4778413289297" dur="33.333333333333336s"
        repeatCount="indefinite" begin="-65.05582471244941s"></animateTransform>
      <path
        d="M84.717,33.597c0.791-2.503,1.186-5.138,1.186-7.773C85.903,11.594,74.308,0,60.079,0 c-9.881,0-18.445,5.534-22.793,13.702c-1.581-0.527-3.426-0.791-5.138-0.791c-9.486,0-17.128,7.642-17.128,17.128 c0,1.186,0.132,2.372,0.395,3.426C6.719,34.783,0,42.424,0,51.515C0,61.66,8.169,69.829,18.314,69.829h63.373 C91.831,69.829,100,61.66,100,51.515C99.868,42.556,93.281,35.046,84.717,33.597z"
        fill="#ffffff" transform="scale(0.7)"></path>
    </g>
    <g transform="translate(-100 1045.7612071675412) rotate(0)">
      <animateTransform attributeName="transform" type="translate" keyTimes="0;1"
        values="-100 1045.7612071675412;1280 1045.7612071675412" dur="33.333333333333336s"
        repeatCount="indefinite" begin="-62.11663414847525s"></animateTransform>
      <path
        d="M84.717,33.597c0.791-2.503,1.186-5.138,1.186-7.773C85.903,11.594,74.308,0,60.079,0 c-9.881,0-18.445,5.534-22.793,13.702c-1.581-0.527-3.426-0.791-5.138-0.791c-9.486,0-17.128,7.642-17.128,17.128 c0,1.186,0.132,2.372,0.395,3.426C6.719,34.783,0,42.424,0,51.515C0,61.66,8.169,69.829,18.314,69.829h63.373 C91.831,69.829,100,61.66,100,51.515C99.868,42.556,93.281,35.046,84.717,33.597z"
        fill="#ffffff" transform="scale(0.7)"></path>
    </g>
    <g transform="translate(-100 851.2825846103119) rotate(0)">
      <animateTransform attributeName="transform" type="translate" keyTimes="0;1"
        values="-100 851.2825846103119;1280 851.2825846103119" dur="33.333333333333336s"
        repeatCount="indefinite" begin="-53.06642161309768s"></animateTransform>
      <path
        d="M84.717,33.597c0.791-2.503,1.186-5.138,1.186-7.773C85.903,11.594,74.308,0,60.079,0 c-9.881,0-18.445,5.534-22.793,13.702c-1.581-0.527-3.426-0.791-5.138-0.791c-9.486,0-17.128,7.642-17.128,17.128 c0,1.186,0.132,2.372,0.395,3.426C6.719,34.783,0,42.424,0,51.515C0,61.66,8.169,69.829,18.314,69.829h63.373 C91.831,69.829,100,61.66,100,51.515C99.868,42.556,93.281,35.046,84.717,33.597z"
        fill="#ffffff" transform="scale(0.7)"></path>
    </g>
    <g transform="translate(-100 978.3904744287713) rotate(0)">
      <animateTransform attributeName="transform" type="translate" keyTimes="0;1"
        values="-100 978.3904744287713;1280 978.3904744287713" dur="33.333333333333336s"
        repeatCount="indefinite" begin="-29.437888660019286s"></animateTransform>
      <path
        d="M84.717,33.597c0.791-2.503,1.186-5.138,1.186-7.773C85.903,11.594,74.308,0,60.079,0 c-9.881,0-18.445,5.534-22.793,13.702c-1.581-0.527-3.426-0.791-5.138-0.791c-9.486,0-17.128,7.642-17.128,17.128 c0,1.186,0.132,2.372,0.395,3.426C6.719,34.783,0,42.424,0,51.515C0,61.66,8.169,69.829,18.314,69.829h63.373 C91.831,69.829,100,61.66,100,51.515C99.868,42.556,93.281,35.046,84.717,33.597z"
        fill="#ffffff" transform="scale(0.7)"></path>
    </g>
    <g transform="translate(-100 327.07283381564605) rotate(0)">
      <animateTransform attributeName="transform" type="translate" keyTimes="0;1"
        values="-100 327.07283381564605;1280 327.07283381564605" dur="33.333333333333336s"
        repeatCount="indefinite" begin="-5.238059111855575s"></animateTransform>
      <path
        d="M84.717,33.597c0.791-2.503,1.186-5.138,1.186-7.773C85.903,11.594,74.308,0,60.079,0 c-9.881,0-18.445,5.534-22.793,13.702c-1.581-0.527-3.426-0.791-5.138-0.791c-9.486,0-17.128,7.642-17.128,17.128 c0,1.186,0.132,2.372,0.395,3.426C6.719,34.783,0,42.424,0,51.515C0,61.66,8.169,69.829,18.314,69.829h63.373 C91.831,69.829,100,61.66,100,51.515C99.868,42.556,93.281,35.046,84.717,33.597z"
        fill="#ffffff" transform="scale(0.7)"></path>
    </g>
    <g transform="translate(-100 84.11242170658244) rotate(0)">
      <animateTransform attributeName="transform" type="translate" keyTimes="0;1"
        values="-100 84.11242170658244;1280 84.11242170658244" dur="33.333333333333336s"
        repeatCount="indefinite" begin="-31.221568153800188s"></animateTransform>
      <path
        d="M84.717,33.597c0.791-2.503,1.186-5.138,1.186-7.773C85.903,11.594,74.308,0,60.079,0 c-9.881,0-18.445,5.534-22.793,13.702c-1.581-0.527-3.426-0.791-5.138-0.791c-9.486,0-17.128,7.642-17.128,17.128 c0,1.186,0.132,2.372,0.395,3.426C6.719,34.783,0,42.424,0,51.515C0,61.66,8.169,69.829,18.314,69.829h63.373 C91.831,69.829,100,61.66,100,51.515C99.868,42.556,93.281,35.046,84.717,33.597z"
        fill="#ffffff" transform="scale(0.7)"></path>
    </g>
    <g transform="translate(-100 576.1168786303252) rotate(0)">
      <animateTransform attributeName="transform" type="translate" keyTimes="0;1"
        values="-100 576.1168786303252;1280 576.1168786303252" dur="33.333333333333336s"
        repeatCount="indefinite" begin="-39.2298297150782s"></animateTransform>
      <path
        d="M84.717,33.597c0.791-2.503,1.186-5.138,1.186-7.773C85.903,11.594,74.308,0,60.079,0 c-9.881,0-18.445,5.534-22.793,13.702c-1.581-0.527-3.426-0.791-5.138-0.791c-9.486,0-17.128,7.642-17.128,17.128 c0,1.186,0.132,2.372,0.395,3.426C6.719,34.783,0,42.424,0,51.515C0,61.66,8.169,69.829,18.314,69.829h63.373 C91.831,69.829,100,61.66,100,51.515C99.868,42.556,93.281,35.046,84.717,33.597z"
        fill="#ffffff" transform="scale(0.7)"></path>
    </g>
    <g transform="translate(-100 223.59810289482076) rotate(0)">
      <animateTransform attributeName="transform" type="translate" keyTimes="0;1"
        values="-100 223.59810289482076;1280 223.59810289482076" dur="33.333333333333336s"
        repeatCount="indefinite" begin="-44.2926287858557s"></animateTransform>
      <path
        d="M84.717,33.597c0.791-2.503,1.186-5.138,1.186-7.773C85.903,11.594,74.308,0,60.079,0 c-9.881,0-18.445,5.534-22.793,13.702c-1.581-0.527-3.426-0.791-5.138-0.791c-9.486,0-17.128,7.642-17.128,17.128 c0,1.186,0.132,2.372,0.395,3.426C6.719,34.783,0,42.424,0,51.515C0,61.66,8.169,69.829,18.314,69.829h63.373 C91.831,69.829,100,61.66,100,51.515C99.868,42.556,93.281,35.046,84.717,33.597z"
        fill="#ffffff" transform="scale(0.7)"></path>
    </g>
    <g transform="translate(-100 96.64321427992925) rotate(0)">
      <animateTransform attributeName="transform" type="translate" keyTimes="0;1"
        values="-100 96.64321427992925;1280 96.64321427992925" dur="22.222222222222225s"
        repeatCount="indefinite" begin="-60.27678559857212s"></animateTransform>
      <path
        d="M84.717,33.597c0.791-2.503,1.186-5.138,1.186-7.773C85.903,11.594,74.308,0,60.079,0 c-9.881,0-18.445,5.534-22.793,13.702c-1.581-0.527-3.426-0.791-5.138-0.791c-9.486,0-17.128,7.642-17.128,17.128 c0,1.186,0.132,2.372,0.395,3.426C6.719,34.783,0,42.424,0,51.515C0,61.66,8.169,69.829,18.314,69.829h63.373 C91.831,69.829,100,61.66,100,51.515C99.868,42.556,93.281,35.046,84.717,33.597z"
        fill="#f1f2f3" transform="scale(0.85)"></path>
    </g>
    <g transform="translate(-100 81.50167785580318) rotate(0)">
      <animateTransform attributeName="transform" type="translate" keyTimes="0;1"
        values="-100 81.50167785580318;1280 81.50167785580318" dur="22.222222222222225s"
        repeatCount="indefinite" begin="-56.11628137752549s"></animateTransform>
      <path
        d="M84.717,33.597c0.791-2.503,1.186-5.138,1.186-7.773C85.903,11.594,74.308,0,60.079,0 c-9.881,0-18.445,5.534-22.793,13.702c-1.581-0.527-3.426-0.791-5.138-0.791c-9.486,0-17.128,7.642-17.128,17.128 c0,1.186,0.132,2.372,0.395,3.426C6.719,34.783,0,42.424,0,51.515C0,61.66,8.169,69.829,18.314,69.829h63.373 C91.831,69.829,100,61.66,100,51.515C99.868,42.556,93.281,35.046,84.717,33.597z"
        fill="#f1f2f3" transform="scale(0.85)"></path>
    </g>
    <g transform="translate(-100 580.3299349278209) rotate(0)">
      <animateTransform attributeName="transform" type="translate" keyTimes="0;1"
        values="-100 580.3299349278209;1280 580.3299349278209" dur="22.222222222222225s"
        repeatCount="indefinite" begin="-49.405071148968155s"></animateTransform>
      <path
        d="M84.717,33.597c0.791-2.503,1.186-5.138,1.186-7.773C85.903,11.594,74.308,0,60.079,0 c-9.881,0-18.445,5.534-22.793,13.702c-1.581-0.527-3.426-0.791-5.138-0.791c-9.486,0-17.128,7.642-17.128,17.128 c0,1.186,0.132,2.372,0.395,3.426C6.719,34.783,0,42.424,0,51.515C0,61.66,8.169,69.829,18.314,69.829h63.373 C91.831,69.829,100,61.66,100,51.515C99.868,42.556,93.281,35.046,84.717,33.597z"
        fill="#f1f2f3" transform="scale(0.85)"></path>
    </g>
    <g transform="translate(-100 560.2422244209099) rotate(0)">
      <animateTransform attributeName="transform" type="translate" keyTimes="0;1"
        values="-100 560.2422244209099;1280 560.2422244209099" dur="22.222222222222225s"
        repeatCount="indefinite" begin="-58.26877616889011s"></animateTransform>
      <path
        d="M84.717,33.597c0.791-2.503,1.186-5.138,1.186-7.773C85.903,11.594,74.308,0,60.079,0 c-9.881,0-18.445,5.534-22.793,13.702c-1.581-0.527-3.426-0.791-5.138-0.791c-9.486,0-17.128,7.642-17.128,17.128 c0,1.186,0.132,2.372,0.395,3.426C6.719,34.783,0,42.424,0,51.515C0,61.66,8.169,69.829,18.314,69.829h63.373 C91.831,69.829,100,61.66,100,51.515C99.868,42.556,93.281,35.046,84.717,33.597z"
        fill="#f1f2f3" transform="scale(0.85)"></path>
    </g>
    <g transform="translate(-100 847.33834357109) rotate(0)">
      <animateTransform attributeName="transform" type="translate" keyTimes="0;1"
        values="-100 847.33834357109;1280 847.33834357109" dur="22.222222222222225s"
        repeatCount="indefinite" begin="-33.677396986248354s"></animateTransform>
      <path
        d="M84.717,33.597c0.791-2.503,1.186-5.138,1.186-7.773C85.903,11.594,74.308,0,60.079,0 c-9.881,0-18.445,5.534-22.793,13.702c-1.581-0.527-3.426-0.791-5.138-0.791c-9.486,0-17.128,7.642-17.128,17.128 c0,1.186,0.132,2.372,0.395,3.426C6.719,34.783,0,42.424,0,51.515C0,61.66,8.169,69.829,18.314,69.829h63.373 C91.831,69.829,100,61.66,100,51.515C99.868,42.556,93.281,35.046,84.717,33.597z"
        fill="#f1f2f3" transform="scale(0.85)"></path>
    </g>
    <g transform="translate(-100 683.1635220333789) rotate(0)">
      <animateTransform attributeName="transform" type="translate" keyTimes="0;1"
        values="-100 683.1635220333789;1280 683.1635220333789" dur="22.222222222222225s"
        repeatCount="indefinite" begin="-39.86068499749944s"></animateTransform>
      <path
        d="M84.717,33.597c0.791-2.503,1.186-5.138,1.186-7.773C85.903,11.594,74.308,0,60.079,0 c-9.881,0-18.445,5.534-22.793,13.702c-1.581-0.527-3.426-0.791-5.138-0.791c-9.486,0-17.128,7.642-17.128,17.128 c0,1.186,0.132,2.372,0.395,3.426C6.719,34.783,0,42.424,0,51.515C0,61.66,8.169,69.829,18.314,69.829h63.373 C91.831,69.829,100,61.66,100,51.515C99.868,42.556,93.281,35.046,84.717,33.597z"
        fill="#f1f2f3" transform="scale(0.85)"></path>
    </g>
    <g transform="translate(-100 1074.003325798541) rotate(0)">
      <animateTransform attributeName="transform" type="translate" keyTimes="0;1"
        values="-100 1074.003325798541;1280 1074.003325798541" dur="22.222222222222225s"
        repeatCount="indefinite" begin="-19.86472042247766s"></animateTransform>
      <path
        d="M84.717,33.597c0.791-2.503,1.186-5.138,1.186-7.773C85.903,11.594,74.308,0,60.079,0 c-9.881,0-18.445,5.534-22.793,13.702c-1.581-0.527-3.426-0.791-5.138-0.791c-9.486,0-17.128,7.642-17.128,17.128 c0,1.186,0.132,2.372,0.395,3.426C6.719,34.783,0,42.424,0,51.515C0,61.66,8.169,69.829,18.314,69.829h63.373 C91.831,69.829,100,61.66,100,51.515C99.868,42.556,93.281,35.046,84.717,33.597z"
        fill="#f1f2f3" transform="scale(0.85)"></path>
    </g>
    <g transform="translate(-100 981.9205191523969) rotate(0)">
      <animateTransform attributeName="transform" type="translate" keyTimes="0;1"
        values="-100 981.9205191523969;1280 981.9205191523969" dur="22.222222222222225s"
        repeatCount="indefinite" begin="-48.66404968268092s"></animateTransform>
      <path
        d="M84.717,33.597c0.791-2.503,1.186-5.138,1.186-7.773C85.903,11.594,74.308,0,60.079,0 c-9.881,0-18.445,5.534-22.793,13.702c-1.581-0.527-3.426-0.791-5.138-0.791c-9.486,0-17.128,7.642-17.128,17.128 c0,1.186,0.132,2.372,0.395,3.426C6.719,34.783,0,42.424,0,51.515C0,61.66,8.169,69.829,18.314,69.829h63.373 C91.831,69.829,100,61.66,100,51.515C99.868,42.556,93.281,35.046,84.717,33.597z"
        fill="#f1f2f3" transform="scale(0.85)"></path>
    </g>
    <g transform="translate(-100 343.66917906374186) rotate(0)">
      <animateTransform attributeName="transform" type="translate" keyTimes="0;1"
        values="-100 343.66917906374186;1280 343.66917906374186" dur="22.222222222222225s"
        repeatCount="indefinite" begin="-2.4799875748199236s"></animateTransform>
      <path
        d="M84.717,33.597c0.791-2.503,1.186-5.138,1.186-7.773C85.903,11.594,74.308,0,60.079,0 c-9.881,0-18.445,5.534-22.793,13.702c-1.581-0.527-3.426-0.791-5.138-0.791c-9.486,0-17.128,7.642-17.128,17.128 c0,1.186,0.132,2.372,0.395,3.426C6.719,34.783,0,42.424,0,51.515C0,61.66,8.169,69.829,18.314,69.829h63.373 C91.831,69.829,100,61.66,100,51.515C99.868,42.556,93.281,35.046,84.717,33.597z"
        fill="#f1f2f3" transform="scale(0.85)"></path>
    </g>
    <g transform="translate(-100 920.4126316166543) rotate(0)">
      <animateTransform attributeName="transform" type="translate" keyTimes="0;1"
        values="-100 920.4126316166543;1280 920.4126316166543" dur="22.222222222222225s"
        repeatCount="indefinite" begin="-25.753495765656s"></animateTransform>
      <path
        d="M84.717,33.597c0.791-2.503,1.186-5.138,1.186-7.773C85.903,11.594,74.308,0,60.079,0 c-9.881,0-18.445,5.534-22.793,13.702c-1.581-0.527-3.426-0.791-5.138-0.791c-9.486,0-17.128,7.642-17.128,17.128 c0,1.186,0.132,2.372,0.395,3.426C6.719,34.783,0,42.424,0,51.515C0,61.66,8.169,69.829,18.314,69.829h63.373 C91.831,69.829,100,61.66,100,51.515C99.868,42.556,93.281,35.046,84.717,33.597z"
        fill="#f1f2f3" transform="scale(0.85)"></path>
    </g>
    <g transform="translate(-100 329.7925281784341) rotate(0)">
      <animateTransform attributeName="transform" type="translate" keyTimes="0;1"
        values="-100 329.7925281784341;1280 329.7925281784341" dur="22.222222222222225s"
        repeatCount="indefinite" begin="-9.397784604068038s"></animateTransform>
      <path
        d="M84.717,33.597c0.791-2.503,1.186-5.138,1.186-7.773C85.903,11.594,74.308,0,60.079,0 c-9.881,0-18.445,5.534-22.793,13.702c-1.581-0.527-3.426-0.791-5.138-0.791c-9.486,0-17.128,7.642-17.128,17.128 c0,1.186,0.132,2.372,0.395,3.426C6.719,34.783,0,42.424,0,51.515C0,61.66,8.169,69.829,18.314,69.829h63.373 C91.831,69.829,100,61.66,100,51.515C99.868,42.556,93.281,35.046,84.717,33.597z"
        fill="#f1f2f3" transform="scale(0.85)"></path>
    </g>
    <g transform="translate(-100 1204.5705999621737) rotate(0)">
      <animateTransform attributeName="transform" type="translate" keyTimes="0;1"
        values="-100 1204.5705999621737;1280 1204.5705999621737" dur="16.666666666666668s"
        repeatCount="indefinite" begin="-34.83295359537546s"></animateTransform>
      <path
        d="M84.717,33.597c0.791-2.503,1.186-5.138,1.186-7.773C85.903,11.594,74.308,0,60.079,0 c-9.881,0-18.445,5.534-22.793,13.702c-1.581-0.527-3.426-0.791-5.138-0.791c-9.486,0-17.128,7.642-17.128,17.128 c0,1.186,0.132,2.372,0.395,3.426C6.719,34.783,0,42.424,0,51.515C0,61.66,8.169,69.829,18.314,69.829h63.373 C91.831,69.829,100,61.66,100,51.515C99.868,42.556,93.281,35.046,84.717,33.597z"
        fill="#bddeff" transform="scale(1)"></path>
    </g>
    <g transform="translate(-100 259.08587609517906) rotate(0)">
      <animateTransform attributeName="transform" type="translate" keyTimes="0;1"
        values="-100 259.08587609517906;1280 259.08587609517906" dur="16.666666666666668s"
        repeatCount="indefinite" begin="-53.82431839541301s"></animateTransform>
      <path
        d="M84.717,33.597c0.791-2.503,1.186-5.138,1.186-7.773C85.903,11.594,74.308,0,60.079,0 c-9.881,0-18.445,5.534-22.793,13.702c-1.581-0.527-3.426-0.791-5.138-0.791c-9.486,0-17.128,7.642-17.128,17.128 c0,1.186,0.132,2.372,0.395,3.426C6.719,34.783,0,42.424,0,51.515C0,61.66,8.169,69.829,18.314,69.829h63.373 C91.831,69.829,100,61.66,100,51.515C99.868,42.556,93.281,35.046,84.717,33.597z"
        fill="#bddeff" transform="scale(1)"></path>
    </g>
    <g transform="translate(-100 426.20863041622385) rotate(0)">
      <animateTransform attributeName="transform" type="translate" keyTimes="0;1"
        values="-100 426.20863041622385;1280 426.20863041622385" dur="16.666666666666668s"
        repeatCount="indefinite" begin="-40.02232639205042s"></animateTransform>
      <path
        d="M84.717,33.597c0.791-2.503,1.186-5.138,1.186-7.773C85.903,11.594,74.308,0,60.079,0 c-9.881,0-18.445,5.534-22.793,13.702c-1.581-0.527-3.426-0.791-5.138-0.791c-9.486,0-17.128,7.642-17.128,17.128 c0,1.186,0.132,2.372,0.395,3.426C6.719,34.783,0,42.424,0,51.515C0,61.66,8.169,69.829,18.314,69.829h63.373 C91.831,69.829,100,61.66,100,51.515C99.868,42.556,93.281,35.046,84.717,33.597z"
        fill="#bddeff" transform="scale(1)"></path>
    </g>
    <g transform="translate(-100 423.6485342639073) rotate(0)">
      <animateTransform attributeName="transform" type="translate" keyTimes="0;1"
        values="-100 423.6485342639073;1280 423.6485342639073" dur="16.666666666666668s"
        repeatCount="indefinite" begin="-17.142749857058703s"></animateTransform>
      <path
        d="M84.717,33.597c0.791-2.503,1.186-5.138,1.186-7.773C85.903,11.594,74.308,0,60.079,0 c-9.881,0-18.445,5.534-22.793,13.702c-1.581-0.527-3.426-0.791-5.138-0.791c-9.486,0-17.128,7.642-17.128,17.128 c0,1.186,0.132,2.372,0.395,3.426C6.719,34.783,0,42.424,0,51.515C0,61.66,8.169,69.829,18.314,69.829h63.373 C91.831,69.829,100,61.66,100,51.515C99.868,42.556,93.281,35.046,84.717,33.597z"
        fill="#bddeff" transform="scale(1)"></path>
    </g>
    <g transform="translate(-100 354.7608031527042) rotate(0)">
      <animateTransform attributeName="transform" type="translate" keyTimes="0;1"
        values="-100 354.7608031527042;1280 354.7608031527042" dur="16.666666666666668s"
        repeatCount="indefinite" begin="-60.680911751607276s"></animateTransform>
      <path
        d="M84.717,33.597c0.791-2.503,1.186-5.138,1.186-7.773C85.903,11.594,74.308,0,60.079,0 c-9.881,0-18.445,5.534-22.793,13.702c-1.581-0.527-3.426-0.791-5.138-0.791c-9.486,0-17.128,7.642-17.128,17.128 c0,1.186,0.132,2.372,0.395,3.426C6.719,34.783,0,42.424,0,51.515C0,61.66,8.169,69.829,18.314,69.829h63.373 C91.831,69.829,100,61.66,100,51.515C99.868,42.556,93.281,35.046,84.717,33.597z"
        fill="#bddeff" transform="scale(1)"></path>
    </g>
    <g transform="translate(-100 252.86115517666644) rotate(0)">
      <animateTransform attributeName="transform" type="translate" keyTimes="0;1"
        values="-100 252.86115517666644;1280 252.86115517666644" dur="16.666666666666668s"
        repeatCount="indefinite" begin="-5.70949170010097s"></animateTransform>
      <path
        d="M84.717,33.597c0.791-2.503,1.186-5.138,1.186-7.773C85.903,11.594,74.308,0,60.079,0 c-9.881,0-18.445,5.534-22.793,13.702c-1.581-0.527-3.426-0.791-5.138-0.791c-9.486,0-17.128,7.642-17.128,17.128 c0,1.186,0.132,2.372,0.395,3.426C6.719,34.783,0,42.424,0,51.515C0,61.66,8.169,69.829,18.314,69.829h63.373 C91.831,69.829,100,61.66,100,51.515C99.868,42.556,93.281,35.046,84.717,33.597z"
        fill="#bddeff" transform="scale(1)"></path>
    </g>
    <g transform="translate(-100 888.2647456249354) rotate(0)">
      <animateTransform attributeName="transform" type="translate" keyTimes="0;1"
        values="-100 888.2647456249354;1280 888.2647456249354" dur="16.666666666666668s"
        repeatCount="indefinite" begin="-63.18370822083841s"></animateTransform>
      <path
        d="M84.717,33.597c0.791-2.503,1.186-5.138,1.186-7.773C85.903,11.594,74.308,0,60.079,0 c-9.881,0-18.445,5.534-22.793,13.702c-1.581-0.527-3.426-0.791-5.138-0.791c-9.486,0-17.128,7.642-17.128,17.128 c0,1.186,0.132,2.372,0.395,3.426C6.719,34.783,0,42.424,0,51.515C0,61.66,8.169,69.829,18.314,69.829h63.373 C91.831,69.829,100,61.66,100,51.515C99.868,42.556,93.281,35.046,84.717,33.597z"
        fill="#bddeff" transform="scale(1)"></path>
    </g>
    <g transform="translate(-100 1116.3288546852148) rotate(0)">
      <animateTransform attributeName="transform" type="translate" keyTimes="0;1"
        values="-100 1116.3288546852148;1280 1116.3288546852148" dur="16.666666666666668s"
        repeatCount="indefinite" begin="-64.78314128129237s"></animateTransform>
      <path
        d="M84.717,33.597c0.791-2.503,1.186-5.138,1.186-7.773C85.903,11.594,74.308,0,60.079,0 c-9.881,0-18.445,5.534-22.793,13.702c-1.581-0.527-3.426-0.791-5.138-0.791c-9.486,0-17.128,7.642-17.128,17.128 c0,1.186,0.132,2.372,0.395,3.426C6.719,34.783,0,42.424,0,51.515C0,61.66,8.169,69.829,18.314,69.829h63.373 C91.831,69.829,100,61.66,100,51.515C99.868,42.556,93.281,35.046,84.717,33.597z"
        fill="#bddeff" transform="scale(1)"></path>
    </g>
    <g transform="translate(-100 766.6107110833728) rotate(0)">
      <animateTransform attributeName="transform" type="translate" keyTimes="0;1"
        values="-100 766.6107110833728;1280 766.6107110833728" dur="16.666666666666668s"
        repeatCount="indefinite" begin="-65.06352839031105s"></animateTransform>
      <path
        d="M84.717,33.597c0.791-2.503,1.186-5.138,1.186-7.773C85.903,11.594,74.308,0,60.079,0 c-9.881,0-18.445,5.534-22.793,13.702c-1.581-0.527-3.426-0.791-5.138-0.791c-9.486,0-17.128,7.642-17.128,17.128 c0,1.186,0.132,2.372,0.395,3.426C6.719,34.783,0,42.424,0,51.515C0,61.66,8.169,69.829,18.314,69.829h63.373 C91.831,69.829,100,61.66,100,51.515C99.868,42.556,93.281,35.046,84.717,33.597z"
        fill="#bddeff" transform="scale(1)"></path>
    </g>
    <g transform="translate(-100 770.231223916619) rotate(0)">
      <animateTransform attributeName="transform" type="translate" keyTimes="0;1"
        values="-100 770.231223916619;1280 770.231223916619" dur="16.666666666666668s"
        repeatCount="indefinite" begin="-1.419331177448117s"></animateTransform>
      <path
        d="M84.717,33.597c0.791-2.503,1.186-5.138,1.186-7.773C85.903,11.594,74.308,0,60.079,0 c-9.881,0-18.445,5.534-22.793,13.702c-1.581-0.527-3.426-0.791-5.138-0.791c-9.486,0-17.128,7.642-17.128,17.128 c0,1.186,0.132,2.372,0.395,3.426C6.719,34.783,0,42.424,0,51.515C0,61.66,8.169,69.829,18.314,69.829h63.373 C91.831,69.829,100,61.66,100,51.515C99.868,42.556,93.281,35.046,84.717,33.597z"
        fill="#bddeff" transform="scale(1)"></path>
    </g>
    <g transform="translate(-100 831.339887565485) rotate(0)">
      <animateTransform attributeName="transform" type="translate" keyTimes="0;1"
        values="-100 831.339887565485;1280 831.339887565485" dur="16.666666666666668s"
        repeatCount="indefinite" begin="-63.86059009036903s"></animateTransform>
      <path
        d="M84.717,33.597c0.791-2.503,1.186-5.138,1.186-7.773C85.903,11.594,74.308,0,60.079,0 c-9.881,0-18.445,5.534-22.793,13.702c-1.581-0.527-3.426-0.791-5.138-0.791c-9.486,0-17.128,7.642-17.128,17.128 c0,1.186,0.132,2.372,0.395,3.426C6.719,34.783,0,42.424,0,51.515C0,61.66,8.169,69.829,18.314,69.829h63.373 C91.831,69.829,100,61.66,100,51.515C99.868,42.556,93.281,35.046,84.717,33.597z"
        fill="#bddeff" transform="scale(1)"></path>
    </g>
    <g transform="translate(-100 15.0638203691826) rotate(0)">
      <animateTransform attributeName="transform" type="translate" keyTimes="0;1"
        values="-100 15.0638203691826;1280 15.0638203691826" dur="16.666666666666668s"
        repeatCount="indefinite" begin="-52.22170528308027s"></animateTransform>
      <path
        d="M84.717,33.597c0.791-2.503,1.186-5.138,1.186-7.773C85.903,11.594,74.308,0,60.079,0 c-9.881,0-18.445,5.534-22.793,13.702c-1.581-0.527-3.426-0.791-5.138-0.791c-9.486,0-17.128,7.642-17.128,17.128 c0,1.186,0.132,2.372,0.395,3.426C6.719,34.783,0,42.424,0,51.515C0,61.66,8.169,69.829,18.314,69.829h63.373 C91.831,69.829,100,61.66,100,51.515C99.868,42.556,93.281,35.046,84.717,33.597z"
        fill="#bddeff" transform="scale(1)"></path>
    </g>
  </g>
</svg>